HIERARCHY
ROOT Hips
{
	OFFSET 0.000000 0.000000 0.000000 
	CHANNELS 6 Xposition Yposition Zposition Zrotation Yrotation Xrotation
	JOINT LeftUpLeg
	{
		OFFSET 1.363060 -1.794630 0.839290 
		CHANNELS 3 Zrotation Yrotation Xrotation
		JOINT LeftLeg
		{
			OFFSET 2.448110 -6.726130 0.000000 
			CHANNELS 3 Zrotation Yrotation Xrotation
			JOINT LeftFoot
			{
				OFFSET 2.562200 -7.039590 0.000000 
				CHANNELS 3 Zrotation Yrotation Xrotation
				JOINT LeftToeBase
				{
					OFFSET 0.157640 -0.433110 2.322550 
					CHANNELS 3 Zrotation Yrotation Xrotation
					End Site
					{
						OFFSET 0.000000 0.000000 0.000000 
					}
				}
			}
		}
	}
	JOINT RightUpLeg
	{
		OFFSET -1.305520 -1.794630 0.839290 
		CHANNELS 3 Zrotation Yrotation Xrotation
		JOINT RightLeg
		{
			OFFSET -2.542530 -6.985550 0.000000 
			CHANNELS 3 Zrotation Yrotation Xrotation
			JOINT RightFoot
			{
				OFFSET -2.568260 -7.056230 0.000000 
				CHANNELS 3 Zrotation Yrotation Xrotation
				JOINT RightToeBase
				{
					OFFSET -0.164730 -0.452590 2.363150 
					CHANNELS 3 Zrotation Yrotation Xrotation
					End Site
					{
						OFFSET 0.000000 0.000000 0.000000 
					}
				}
			}
		}
	}
	JOINT Spine
	{
		OFFSET 0.028270 2.035590 -0.193380 
		CHANNELS 3 Zrotation Yrotation Xrotation
		JOINT Spine1
		{
			OFFSET 0.056720 2.048850 -0.042750 
			CHANNELS 3 Zrotation Yrotation Xrotation
			JOINT Neck1
			{
				OFFSET -0.054170 1.746240 0.172020 
				CHANNELS 3 Zrotation Yrotation Xrotation
				JOINT Head
				{
					OFFSET 0.104070 1.761360 -0.123970 
					CHANNELS 3 Zrotation Yrotation Xrotation
					End Site
					{
						OFFSET 0.000000 0.000000 0.000000 
					}
				}
			}
			JOINT LeftArm
			{
				OFFSET 3.362410 1.200890 -0.311210 
				CHANNELS 3 Zrotation Yrotation Xrotation
				JOINT LeftForeArm
				{
					OFFSET 4.983000 -0.000000 -0.000000 
					CHANNELS 3 Zrotation Yrotation Xrotation
					JOINT LeftHand
					{
						OFFSET 3.483560 -0.000000 -0.000000 
						CHANNELS 3 Zrotation Yrotation Xrotation
						JOINT LeftHandIndex1
						{
							OFFSET 0.715260 -0.000000 -0.000000 
							CHANNELS 3 Zrotation Yrotation Xrotation
							End Site
							{
								OFFSET 0.000000 0.000000 0.000000 
							}
						}
					}
				}
			}
			JOINT RightArm
			{
				OFFSET -3.136600 1.374050 -0.404650 
				CHANNELS 3 Zrotation Yrotation Xrotation
				JOINT RightForeArm
				{
					OFFSET -5.241900 -0.000000 -0.000000 
					CHANNELS 3 Zrotation Yrotation Xrotation
					JOINT RightHand
					{
						OFFSET -3.444170 -0.000000 -0.000000 
						CHANNELS 3 Zrotation Yrotation Xrotation
						JOINT RightHandIndex1
						{
							OFFSET -0.622530 -0.000000 -0.000000 
							CHANNELS 3 Zrotation Yrotation Xrotation
							End Site
							{
								OFFSET 0.000000 0.000000 0.000000 
							}
						}
					}
				}
			}
		}
	}
}
MOTION
Frames: 9
Frame Time: 0.041667
9.657905 17.878201 33.847828 179.657439 -1.024397 -152.041426 -25.027517 -18.777288 -17.872432 -1.201535 4.146693 8.887110 0.531221 -3.122766 -17.262280 3.067600 -10.803700 -31.620700 30.179692 17.402430 -17.110955 1.342932 -3.219023 6.777612 -1.771859 -0.642068 -26.747820 -1.255700 7.104000 -20.023800 1.439212 -0.798874 -5.693239 -0.674233 -1.421391 13.009016 9.118701 -4.473529 7.432986 0.191700 -2.029200 0.943600 -105.759134 -4.229734 15.774173 11.387747 -12.532124 -1.546443 -1.817919 1.156638 7.212519 -7.125000 0.000000 0.000000 101.761961 -1.694244 7.612595 -13.113201 23.409849 -3.524019 0.635965 3.989188 0.818750 7.125000 0.000000 0.000000 
9.655171 17.872187 33.841268 179.707997 -0.983847 -151.819891 -24.895955 -18.934707 -18.016808 -1.214929 4.135768 8.811786 0.559001 -2.993658 -17.410848 2.717900 -10.223700 -29.704100 30.165879 17.500318 -17.355622 1.346893 -3.254418 6.791348 -1.772852 -0.635129 -26.814361 -1.172700 6.873700 -19.341800 1.448004 -0.735453 -5.738476 -0.647426 -1.395866 12.929616 9.013902 -4.554619 7.400413 0.162900 -2.073100 0.905600 -105.833368 -4.106724 15.890531 11.367183 -12.503229 -1.544165 -1.792884 1.166693 7.196173 -7.125000 0.000000 0.000000 101.693187 -1.943616 7.831519 -13.240951 23.588738 -3.585745 0.645500 3.901115 0.210939 7.125000 0.000000 0.000000 
9.653312 17.868579 33.837987 179.768901 -0.970704 -151.695814 -24.788250 -18.999867 -18.116761 -1.220912 4.134619 8.781143 0.569049 -2.882860 -17.379177 2.644800 -10.096500 -29.289800 30.225088 17.415686 -17.559147 1.342710 -3.278828 6.806364 -1.754214 -0.516281 -26.687189 -1.134200 6.763900 -19.017700 1.448093 -0.715434 -5.751189 -0.685753 -1.381411 12.925137 9.052863 -4.502622 7.274456 0.201000 -2.057000 0.834600 -105.814088 -4.034959 15.998417 11.379517 -12.532727 -1.552707 -1.767513 1.165574 7.085773 -7.125000 0.000000 0.000000 101.686322 -2.037605 7.992590 -13.381548 23.802875 -3.659005 0.646887 3.978579 0.340981 7.125000 0.000000 0.000000 
9.653531 17.866938 33.837550 179.811776 -0.999968 -151.598773 -24.682342 -19.018955 -18.242778 -1.220087 4.157574 8.816676 0.564383 -2.879708 -17.340245 2.573900 -9.971000 -28.882800 30.245508 17.515723 -17.674364 1.347636 -3.298070 6.809888 -1.749842 -0.581769 -26.706539 -1.085400 6.621500 -18.598800 1.462816 -0.723264 -5.755275 -0.641923 -1.377335 12.933750 9.168599 -4.434542 6.925614 0.284000 -2.051500 0.644300 -105.839786 -4.033897 15.926061 11.369317 -12.526595 -1.552409 -1.740165 1.179835 7.155402 -7.125000 0.000000 0.000000 101.642307 -2.115463 7.996085 -13.303958 23.676613 -3.615648 0.638205 3.893388 0.095368 7.125000 0.000000 0.000000 
9.654515 17.867048 33.839190 179.863814 -1.028416 -151.540970 -24.560738 -19.029772 -18.353705 -1.217816 4.187992 8.877758 0.559914 -2.942420 -17.395934 2.507600 -9.851700 -28.497900 30.271239 17.724934 -17.747352 1.351179 -3.351015 6.903359 -1.729656 -0.728554 -26.622867 -1.161800 6.842900 -19.250700 1.472450 -0.734763 -5.757918 -0.633109 -1.379008 12.933317 9.257435 -4.447979 6.806656 0.326100 -2.067600 0.579600 -105.836042 -4.065005 15.803314 11.339830 -12.486430 -1.544905 -1.711415 1.202436 7.265738 -7.125000 0.000000 0.000000 101.638987 -2.113419 8.054331 -13.307229 23.676095 -3.615948 0.632124 3.886509 0.031990 7.125000 0.000000 0.000000 
9.655718 17.868469 33.843345 179.944782 -1.057868 -151.536062 -24.473889 -19.037913 -18.421764 -1.215685 4.217345 8.945340 0.559546 -2.951835 -17.415114 2.619300 -10.051700 -29.144400 30.531787 17.838475 -17.817631 1.328321 -3.454278 7.106584 -1.132212 -2.581916 -21.998942 -2.879700 10.497800 -30.604200 1.474176 -0.760994 -5.765714 -0.653438 -1.390557 12.882953 9.258288 -4.474198 6.865416 0.314400 -2.075800 0.609300 -105.788363 -4.052911 15.800562 11.327764 -12.477607 -1.547825 -1.650603 1.223942 7.135262 -7.125000 0.000000 0.000000 101.676808 -2.075965 7.996919 -13.280611 23.637867 -3.603694 0.636662 3.887983 0.103538 7.125000 0.000000 0.000000 
9.655827 17.869453 33.845860 179.880806 -1.035061 -151.518539 -24.543886 -19.032454 -18.468827 -1.214482 4.230161 8.965807 0.556565 -2.931270 -17.359179 2.695700 -10.185400 -29.579200 30.424450 17.868453 -17.852404 1.330928 -3.448516 7.082301 -1.130502 -2.660327 -22.006930 -2.869500 10.480700 -30.547700 1.474623 -0.773216 -5.771703 -0.603892 -1.401681 12.853394 9.240464 -4.471639 6.953473 0.302000 -2.066900 0.663400 -105.786215 -3.993414 15.940246 11.350913 -12.516045 -1.557979 -1.631524 1.195304 6.889995 -7.125000 0.000000 0.000000 101.665122 -2.056698 7.878238 -13.254895 23.597291 -3.590147 0.642129 3.886349 0.249501 7.125000 0.000000 0.000000 
9.654953 17.867922 33.844548 179.832955 -1.005990 -151.474395 -24.610386 -19.025265 -18.531832 -1.213579 4.242976 8.983691 0.553590 -2.927999 -17.330873 2.682500 -10.162300 -29.504100 30.334687 17.803784 -17.910718 1.326107 -3.432951 7.036284 -1.125447 -2.550607 -21.936739 -2.758700 10.293800 -29.933600 1.466163 -0.759431 -5.770708 -0.593474 -1.398878 12.872936 9.251609 -4.470164 6.932343 0.301300 -2.068300 0.665400 -105.779880 -3.949122 16.008588 11.368347 -12.544072 -1.562887 -1.636544 1.165429 6.830442 -7.125000 0.000000 0.000000 101.673718 -2.036109 7.776898 -13.237613 23.570625 -3.581046 0.645822 3.879152 0.361628 7.125000 0.000000 0.000000 
9.655281 17.865735 33.842470 179.888337 -1.012727 -151.448794 -24.532412 -18.994999 -18.589030 -1.212974 4.255075 9.009082 0.552437 -2.948190 -17.352802 2.748400 -10.276300 -29.876000 30.411851 17.722674 -17.997659 1.321184 -3.459475 7.090824 -1.125190 -2.427061 -21.915889 -2.806200 10.374600 -30.198500 1.473747 -0.763809 -5.773814 -0.603427 -1.397135 12.876905 9.260720 -4.463679 6.895250 0.301600 -2.068600 0.654200 -105.789744 -3.901949 15.909789 11.374979 -12.558091 -1.563720 -1.644355 1.158981 6.879213 -7.125000 0.000000 0.000000 101.681135 -2.021963 7.716545 -13.231112 23.559686 -3.577331 0.648819 3.874867 0.457265 7.125000 0.000000 0.000000 
